<?xml version="1.0" encoding="UTF-8" standalone="no"?><!DOCTYPE svg PUBLIC "-//W3C//DTD SVG 1.1//EN" "http://www.w3.org/Graphics/SVG/1.1/DTD/svg11.dtd"><svg width="100%" height="100%" viewBox="0 0 4434 3297" version="1.1" xmlns="http://www.w3.org/2000/svg" xmlns:xlink="http://www.w3.org/1999/xlink" xml:space="preserve" xmlns:serif="http://www.serif.com/" style="fill-rule:evenodd;clip-rule:evenodd;stroke-linejoin:round;stroke-miterlimit:2;"><g><path d="M2225.83,2364.79c-67.279,-39.265 -129.047,-75.162 -190.585,-111.289c-6.353,-3.751 -12.935,-3.598 -19.594,-3.062c-30.234,2.526 -60.391,5.358 -92.231,8.19c4.056,16.226 8.725,30.999 2.678,46.154c-1.607,4.056 1.684,7.194 3.827,10.792c12.094,20.589 19.518,41.714 5.129,64.523c-10.027,15.844 -13.471,33.142 -13.242,51.971c2.526,219.365 4.669,438.729 6.506,658.17c0.077,11.481 6.736,31.152 -10.639,31.688c-20.36,0.536 -12.476,-20.207 -12.629,-31.994c-1.761,-146.498 -2.679,-292.996 -4.133,-439.494c-0.613,-60.697 -1.455,-121.47 -2.985,-182.166c-0.919,-36.663 -3.062,-73.173 20.665,-103.253c-16.609,-33.372 -12.169,-69.269 -20.895,-104.86c-151.397,18.829 -299.732,37.275 -447.608,55.644c-3.827,7.272 0.919,12.094 3.98,15.155c13.471,13.701 12.783,28.473 5.97,44.623c-1.76,4.21 -4.515,9.491 -0.918,13.472c19.135,20.895 10.333,42.479 0.765,63.758c7.425,9.184 14.39,17.374 20.896,25.87c2.832,3.674 7.501,8.496 6.812,11.864c-7.807,37.046 27.861,63.222 22.656,101.416c-4.746,34.902 1.76,71.259 2.832,107.003c4.286,137.62 8.572,275.163 12.093,412.782c0.306,11.405 9.185,32.224 -11.634,32.147c-17.068,-0.153 -11.557,-19.824 -11.94,-31.611c-5.741,-170.608 -11.328,-341.217 -16.456,-511.902c-0.766,-24.952 2.449,-50.21 -20.054,-68.656c-2.526,-2.067 -3.98,-8.037 -2.985,-11.252c6.659,-20.895 -4.363,-35.132 -17.91,-47.914c-10.563,-9.95 -11.558,-19.594 -4.822,-32.3c7.271,-13.701 9.184,-28.09 -2.679,-41.255c-5.511,-6.123 -6.353,-14.543 -2.526,-20.972c11.022,-18.14 1.378,-31.841 -7.807,-46.078c-4.057,-6.199 -6.812,-13.547 -11.941,-18.675c-9.72,-9.721 -8.725,-18.829 1.914,-25.029c24.569,-14.237 25.105,-35.897 23.804,-60.697c-4.21,-78.836 -7.118,-157.749 -9.797,-236.586c-0.383,-11.481 -4.133,-18.522 -13.548,-24.722c-14.083,-9.262 -27.707,-19.288 -40.719,-29.927c-12.17,-9.951 -11.022,-19.135 2.832,-26.177c10.18,-5.128 20.895,-9.262 31.687,-14.007c3.751,-24.034 0.077,-47.532 0.077,-71.029c0.077,-39.189 -0.459,-78.301 0.077,-117.49c0.229,-15.384 -2.832,-28.932 -11.022,-42.174c-12.247,-19.9 -10.257,-24.492 11.404,-35.438c5.435,-2.755 10.716,-5.664 17.528,-9.261c-1.225,-24.416 3.368,-47.761 23.115,-65.901c-9.185,-14.313 -16.762,-27.861 -26.024,-40.107c-10.715,-14.237 -8.955,-24.034 7.119,-32.147c6.506,-3.292 11.94,-8.649 18.752,-13.701c-14.313,-23.651 -16.303,-45.159 9.95,-62.533c7.272,-4.823 5.358,-14.849 6.43,-22.58c3.367,-26.1 6.199,-52.277 8.878,-78.454c0.842,-7.96 1.99,-15.078 12.094,-15.308c9.797,-0.229 12.017,6.43 13.318,14.466c3.214,19.289 7.577,38.424 10.103,57.788c2.526,19.595 6.812,36.969 21.431,52.43c13.778,14.543 10.563,33.678 -0.076,52.431c50.134,22.196 16.379,51.588 7.883,80.443c7.731,9.491 15.921,19.518 28.244,34.52c-0.306,-29.391 -3.98,-55.186 29.009,-61.462c-5.129,-16.686 -8.956,-31.611 -14.313,-46.001c-12.63,-33.524 -12.936,-33.371 16.226,-46.613l0,-234.519c-12.782,-6.889 -27.937,-3.291 -33.601,-18.293c6.429,-14.084 19.365,-23.039 30.157,-33.754c7.654,-7.578 13.93,-14.696 13.93,-27.325c-0.076,-62.151 27.555,-112.974 68.198,-157.597c14.006,-15.384 30.31,-28.703 44.469,-44.087c28.014,-30.387 31.152,-75.086 7.348,-109.147c-13.7,-19.594 -19.594,-39.571 -11.71,-62.763c2.679,-7.96 1.377,-15.997 -1.378,-23.88c-3.674,-10.486 -3.597,-21.355 -1.837,-31.994c1.301,-7.884 2.296,-16.915 10.792,-20.589c9.491,-4.057 14.619,3.903 20.436,9.338c5.971,5.587 12.323,12.093 21.202,7.5c9.95,-5.128 16.915,-13.547 17.145,-25.487c0.383,-19.518 -0.918,-39.113 2.909,-58.554c3.367,-17.221 5.74,-34.902 17.221,-49.139c5.741,-7.194 4.899,-15.155 4.746,-23.115c-0.689,-44.546 -1.531,-89.093 -2.067,-133.639c-0.076,-8.42 -2.296,-20.054 10.18,-20.666c13.854,-0.689 12.476,11.711 12.782,20.742c1.148,43.169 2.143,86.414 2.679,129.583c0.153,9.95 3.215,17.298 9.721,25.258c18.369,22.58 20.895,50.517 22.426,78.301c0.536,10.103 0.077,20.207 0.077,32.989c20.13,-0.919 24.033,17.987 34.902,28.626c10.18,1.072 17.145,-5.128 24.799,-8.879c7.042,-3.52 13.548,-6.429 20.436,-0.382c6.736,5.893 5.741,14.007 3.292,20.742c-3.215,8.726 -8.65,16.533 -14.007,26.33c13.777,38.117 10.256,74.168 -17.222,108.458c-11.175,13.93 -5.358,32.606 7.96,45.771c22.044,21.814 44.164,43.551 66.973,64.523c46.46,42.633 69.652,94.987 68.044,158.132c-0.153,6.047 0.153,12.17 0.153,18.217c0.077,27.325 2.067,53.731 27.325,71.565c2.45,1.684 3.368,5.588 5.282,8.955c-8.114,18.064 -29.315,15.462 -42.327,28.473l-0,306.391c16.226,7.807 31.152,17.451 52.966,21.891c-13.548,-27.861 -9.032,-48.221 7.041,-69.116c11.941,-15.614 8.65,-37.658 12.859,-56.64c2.679,-11.864 4.21,-23.88 6.277,-35.897c1.377,-7.731 4.056,-15.308 13.624,-14.313c8.725,0.918 11.634,7.73 12.323,15.997c1.837,24.186 4.286,48.373 5.97,72.636c0.765,11.328 4.056,20.13 13.93,27.402c15.614,11.481 20.054,28.014 14.926,47.684c18.446,9.415 19.517,22.503 7.041,37.505c-14.849,17.911 -17.91,36.127 -5.281,57.099c6.506,10.792 9.874,23.498 14.466,34.826c10.716,5.511 21.814,4.669 32.3,6.736c15.538,3.138 19.747,13.471 11.328,26.483c-0.383,0.535 -0.765,1.148 -1.378,1.53c-30.692,20.513 -28.32,51.818 -27.554,82.97c0.689,26.33 0.612,52.66 -0.153,78.99c-0.383,11.481 3.827,19.058 12.705,25.564c11.405,8.343 22.044,17.757 33.525,25.947c14.083,10.027 14.237,20.054 1.454,30.999c-0.535,0.459 -0.765,1.148 -1.301,1.531c-39.112,26.483 -45.159,63.835 -43.551,108.687c3.214,91.619 0.995,183.544 3.214,275.239c7.731,8.037 17.987,7.884 24.264,13.395c7.271,14.083 -3.674,21.201 -11.711,26.865c-21.814,15.538 -33.372,34.061 -26.33,61.768c1.378,5.511 1.072,13.242 -1.837,17.758c-16.15,24.875 -18.752,53.654 -25.87,81.209c-2.986,11.481 -14.849,17.145 -22.503,25.411c-8.802,9.568 -12.859,19.288 -12.783,32.453c0.919,134.329 1.225,268.733 1.914,403.062c0.153,31.687 1.148,63.375 1.454,95.139c0.077,9.185 1.761,21.125 -11.634,21.967c-14.466,0.842 -12.476,-11.634 -12.552,-20.589c-1.225,-170.149 -2.144,-340.298 -3.292,-510.371c-0.076,-8.419 0.613,-16.609 7.272,-22.35c25.641,-22.043 37.428,-50.133 38.882,-83.582c0.23,-5.97 5.588,-12.016 9.261,-17.604c4.976,-7.501 9.185,-15.002 7.655,-24.416c-5.129,-29.851 -0.842,-56.487 34.672,-73.173Zm-335.629,-521.086c-9.797,1.684 -16.38,2.832 -22.886,3.98c-111.06,19.058 -218.522,57.864 -335.323,60.849c4.134,122.312 8.343,245.848 12.63,371.221c119.938,-15.155 235.973,-29.851 353.003,-44.623c-2.449,-131.267 -4.898,-259.931 -7.424,-391.427Zm-295.675,38.27c103.788,-22.426 205.664,-44.546 309.07,-66.896c-2.067,-102.182 -4.134,-202.143 -6.124,-302.258c-10.333,0 -17.068,-0.536 -23.727,0.077c-76.54,7.501 -153.081,15.002 -229.545,23.038c-16.379,1.684 -34.29,-1.837 -49.598,13.778c-0.076,108.381 -0.076,218.828 -0.076,332.261Zm615.614,94.757c-4.057,-3.98 -8.267,-3.827 -12.247,-3.521c-21.278,1.607 -38.423,-4.592 -54.42,-20.054c-22.733,-21.89 -47.685,-41.637 -72.484,-61.308c-15.384,-12.247 -28.473,-24.57 -22.962,-46.843c0.536,-2.22 -1.071,-4.975 -1.684,-7.348c-5.893,-0.612 -11.328,-2.602 -16.762,3.444c2.296,127.593 4.592,256.104 6.889,385.534c55.951,32.453 111.366,64.523 169.613,98.354c-0,-12.246 0.076,-19.594 -0,-26.942c-1.148,-94.451 -2.296,-188.825 -3.521,-283.276c-0.077,-13.318 -1.301,-26.865 7.578,-38.04Zm-588.825,-462.457c87.868,-8.725 173.44,-17.221 257.175,-25.564l0,-381.707c-84.194,12.859 -161.882,50.517 -250.133,33.755c-7.195,7.73 -15.844,16.992 -25.182,27.095c15.92,5.358 19.518,16.992 19.824,31.917c1.301,70.877 3.444,141.676 4.898,212.553c0.613,30.003 0.23,30.003 -26.559,42.709c6.429,18.906 12.782,37.964 19.977,59.242Zm295.828,-430.386c1.99,-40.872 4.516,-77.765 -21.814,-107.922c-41.944,-48.144 -60.467,-102.487 -46.077,-168.082c-12.629,3.903 -22.656,8.343 -31.994,15.002c-5.817,4.133 -13.854,9.414 -19.594,1.071c-6.047,-8.649 0.459,-14.236 7.501,-19.747c17.374,-13.395 36.969,-18.752 57.558,-16.916c19.288,-32.3 14.16,-52.659 -24.722,-99.885c-13.854,3.215 -31.152,-7.041 -43.628,2.985c-18.141,14.62 -35.439,19.365 -58.936,5.511c7.347,19.671 12.782,35.898 6.505,52.584c-5.434,14.389 -0.535,26.253 6.813,38.117c33.065,53.884 33.83,112.897 -21.355,156.448c-24.417,19.288 -44.7,42.863 -61.079,69.575c-19.365,31.458 -32.147,64.83 -31.382,102.794c26.56,11.557 52.047,7.501 79.143,2.679c-0,-11.788 1.607,-22.733 -0.306,-33.066c-7.348,-39.877 1.607,-72.56 37.811,-94.986c7.041,-4.363 13.853,-16.916 21.584,-8.802c10.639,11.328 36.28,6.888 32.606,34.29c-3.521,26.253 -2.832,53.272 2.296,79.372c38.041,3.827 69.04,-30.387 109.07,-11.022Zm146.039,115.346c-53.961,-71.182 -97.589,-95.445 -160.275,-90.7c-1.378,125.067 1.377,250.21 3.367,377.65c47.685,-11.404 79.755,25.794 120.781,34.367l0,-265.059c0,-25.412 -8.879,-55.875 36.127,-56.258Zm-528.74,301.187c-5.664,-9.798 -14.926,-14.62 -22.58,-21.126c-7.73,-6.582 -11.404,-15.001 -3.597,-22.656c15.614,-15.231 10.027,-26.865 -3.598,-38.959c-5.357,-4.745 -9.567,-10.639 -14.389,-16.15c-2.679,6.43 0.612,14.007 -4.516,19.442c-24.876,14.083 -24.799,14.083 -5.817,35.591c9.108,10.333 4.286,18.523 -4.899,25.488c-9.031,6.889 -19.441,11.94 -27.171,21.814c6.965,10.869 12.705,22.579 20.972,32.147c10.945,12.705 10.945,23.574 -0.46,35.361c-13.011,13.395 -18.216,29.468 -15.537,48.068c1.684,11.94 -4.133,18.905 -14.62,23.574c-6.046,2.679 -11.634,6.43 -17.757,9.95c5.741,12.17 13.242,22.197 13.165,36.204c-0.23,53.961 0.765,107.998 1.531,161.959c0.153,10.41 1.071,20.819 1.684,31.994c44.929,-20.666 87.945,4.822 131.266,-2.296c0.536,-2.909 1.455,-5.434 1.455,-8.037c0.153,-80.291 0.076,-160.658 0.382,-240.949c0,-8.878 -3.597,-15.537 -8.802,-21.89c-8.955,-10.946 -17.374,-22.427 -27.248,-32.53c-15.691,-15.997 -23.345,-32.147 -9.185,-53.348c4.899,-6.889 6.736,-15.844 9.721,-23.651Zm574.435,78.836c18.293,30.693 18.369,30.769 -0.689,61.309c-8.19,13.165 -15.844,26.712 -25.105,39.112c-8.649,11.481 -11.635,23.345 -11.328,37.505c0.842,43.168 0.918,86.337 0.765,129.429c0,10.18 2.449,17.681 10.869,24.34c20.053,15.921 41.102,31.152 58.4,49.751c23.881,25.718 51.435,34.214 84.883,27.785c3.291,-0.613 6.736,-0.46 10.027,-0.919c5.664,-0.765 10.409,-2.832 11.787,-10.945c-10.869,-8.726 -22.196,-18.064 -33.831,-27.095c-7.118,-5.588 -14.389,-11.711 -13.547,-21.279c5.434,-62.074 -15.538,-126.444 15.537,-187.447c-36.05,1.301 -33.295,-31.841 -44.316,-52.966c-12.476,-23.957 -21.355,-48.603 3.291,-71.642c-26.636,-10.256 -28.55,-15.767 -11.787,-32.759c11.557,-11.634 9.567,-21.201 -1.684,-30.539c-7.654,-6.353 -16.992,-10.946 -22.044,-22.962c-4.286,8.649 -8.649,14.159 -13.624,19.441c-7.807,8.19 -8.879,17.987 -1.99,27.631c18.37,25.717 18.37,25.641 -9.721,38.04c-1.837,0.689 -3.291,2.22 -5.893,4.21Zm-187.677,-74.703c2.296,107.233 4.363,207.347 6.506,307.003l120.627,-0c0,-41.255 -0.535,-80.98 0.153,-120.704c0.689,-40.873 18.829,-77.459 30.77,-117.413c-51.665,-20.666 -99.732,-50.364 -158.056,-68.886Zm-7.118,333.486c2.602,133.333 5.128,264.37 7.73,397.091c31.535,-3.368 59.472,-6.429 89.705,-9.721c0.46,-129.429 -3.674,-257.864 -6.276,-387.447c-30.616,0.077 -59.319,0.077 -91.159,0.077Zm-406.2,66.82c-41.944,-16.916 -70.187,9.108 -104.784,21.507c9.262,7.042 15.079,13.089 22.121,16.61c22.426,11.175 29.621,28.243 30.08,53.425c1.531,82.893 5.894,165.71 8.879,248.526c0.535,15.308 4.822,31.688 -13.395,47.302c26.177,-6.047 47.914,-3.98 70.111,-11.481c-4.363,-125.679 -8.726,-250.823 -13.012,-375.889Zm359.816,-1222.73c-0.076,9.032 4.057,11.94 6.659,15.691c24.646,35.821 32.836,72.177 4.057,110.141c-7.578,10.027 -9.568,21.891 -10.104,34.367c-1.836,41.868 11.558,78.607 38.806,109.759c21.814,25.028 33.755,53.272 34.673,86.184c0.459,15.921 0.077,31.917 0.077,51.359c43.628,-7.654 68.197,20.666 95.063,48.679c-0,-19.824 -0.23,-33.907 -0,-47.99c0.842,-47.149 -16.533,-86.874 -49.751,-119.786c-25.412,-25.182 -51.589,-49.445 -76.923,-74.627c-24.111,-23.957 -27.478,-57.558 -7.042,-83.965c18.063,-23.268 20.666,-47.684 11.098,-74.167c-2.985,-8.266 -4.286,-16.609 -3.674,-27.784c-24.799,7.883 -28.779,-15.155 -42.939,-27.861Zm-83.658,420.359c-5.129,-30.692 -1.608,-59.548 -3.904,-87.944c-19.518,-11.711 -28.167,6.199 -35.208,14.619c-21.279,25.182 -3.445,55.568 -9.721,85.266c17.834,-4.44 31.994,-7.884 48.833,-11.941Zm41.102,-544.507c-14.39,38.576 -19.671,72.024 -13.242,108.075c10.486,0.076 19.671,2.832 29.774,-3.139c1.608,-33.983 2.679,-67.891 -16.532,-104.936Z" style="fill-rule:nonzero;"/><path d="M53.161,1562.26c53.349,40.873 104.631,80.061 155.76,119.403c147.034,112.897 293.838,226.1 441.178,338.538c16.15,12.323 17.757,27.325 16.073,44.699c-7.424,77.23 -14.772,154.459 -22.196,231.764c-0.613,6.659 -1.378,13.318 -2.297,22.35c37.888,8.267 75.163,16.456 112.438,24.417c63.988,13.624 127.899,27.248 191.963,40.489c11.711,2.45 20.896,5.97 27.019,17.987c56.793,111.749 114.045,223.345 171.374,334.788c46.842,91.083 93.915,182.089 140.91,273.095c1.837,3.521 3.904,6.813 6.966,12.094c38.959,-24.493 76.923,-48.603 115.04,-72.407c14.083,-8.802 30.922,-23.115 44.01,-3.521c13.854,20.819 -7.807,29.085 -21.354,37.811c-40.796,26.33 -81.822,52.277 -123.001,77.918c-24.493,15.231 -35.285,11.787 -48.22,-13.242c-105.319,-204.209 -210.792,-408.419 -315.958,-612.705c-4.134,-8.037 -9.415,-12.323 -18.064,-14.16c-96.976,-20.36 -193.953,-41.025 -290.93,-61.232c-28.243,-5.894 -35.208,-13.395 -32.606,-43.016c7.195,-82.663 14.772,-165.327 23.115,-247.914c1.225,-11.94 -2.372,-18.523 -11.251,-25.335c-196.402,-150.401 -392.652,-301.033 -588.901,-451.664c-3.751,-2.909 -7.425,-5.894 -10.945,-9.032c-17.911,-15.844 -17.911,-27.401 1.224,-42.709c53.578,-43.092 107.463,-85.878 161.194,-128.741c144.967,-115.576 289.935,-231.075 434.902,-346.651c4.21,-3.368 7.96,-7.271 13.701,-12.476c-6.659,-37.199 -13.624,-75.545 -20.436,-113.892c-9.491,-53.808 -18.982,-107.616 -28.32,-161.424c-3.751,-21.814 2.908,-31.917 25.105,-34.672c112.514,-13.625 225.028,-27.249 337.696,-39.725c17.91,-1.99 28.779,-7.271 36.663,-24.569c45.464,-99.962 92.078,-199.464 138.384,-299.043c55.416,-119.097 110.907,-238.27 166.629,-357.214c11.328,-24.263 25.258,-28.167 48.373,-14.313c113.127,68.121 226.177,136.471 339.227,204.745c96.364,58.171 192.805,116.265 288.863,174.895c11.404,6.965 20.36,6.047 31.611,0.612c103.789,-50.057 207.807,-99.655 311.749,-149.559c24.34,-11.711 33.677,-8.726 43.857,15.69c31.841,75.775 63.912,151.474 95.14,227.478c4.822,11.711 11.175,16.38 23.651,17.375c164.715,13.854 329.429,28.243 494.068,42.48c89.399,7.73 178.798,15.461 268.197,23.344c28.09,2.45 32.529,13.778 21.814,40.337c-14.007,34.979 -24.799,71.183 -36.816,107.004c-66.361,198.775 -132.568,397.626 -199.388,596.249c-5.281,15.614 -4.439,26.636 6.736,39.877c45.848,54.726 90.394,110.677 135.323,166.169c2.526,3.138 4.899,6.506 7.348,9.721c8.573,11.175 13.624,23.268 0,33.448c-13.318,9.95 -23.804,2.373 -32.759,-8.649c-52.966,-65.519 -105.932,-131.114 -159.281,-196.25c-8.955,-11.021 -8.725,-21.584 -4.592,-33.907c29.698,-88.098 59.166,-176.272 88.634,-264.523c48.909,-146.345 97.818,-292.69 146.651,-439.036c0.842,-2.525 1.072,-5.204 2.067,-10.026c-39.495,-3.598 -78.378,-7.272 -117.26,-10.639c-211.711,-18.37 -423.498,-36.893 -635.285,-54.727c-22.196,-1.837 -34.826,-10.18 -43.245,-31.534c-28.32,-71.412 -58.63,-141.983 -88.174,-212.859c-2.067,-4.898 -3.139,-10.409 -10.027,-14.543c-45.695,21.814 -92.384,44.011 -139.074,66.361c-59.548,28.626 -119.173,57.099 -178.569,86.184c-15.231,7.425 -27.784,4.516 -41.561,-3.827c-125.067,-75.851 -250.363,-151.32 -375.66,-226.865c-81.974,-49.445 -163.873,-98.967 -245.847,-148.335c-3.368,-1.99 -7.042,-3.521 -12.553,-6.277c-17.451,37.352 -34.596,73.632 -51.511,110.065c-86.644,186.376 -173.211,372.828 -259.778,559.28c-6.2,13.318 -15.538,20.896 -30.769,22.656c-99.197,11.481 -198.316,23.575 -297.436,35.438c-17.987,2.144 -35.974,4.21 -55.262,6.43c8.419,48.833 16.532,96.517 24.952,144.202c6.965,39.188 14.543,78.224 21.355,117.489c3.597,20.819 -5.664,35.591 -21.967,48.527c-195.637,155.453 -391.121,311.519 -589.667,469.804Z" style="fill-rule:nonzero;"/><path d="M4183.35,2314.73l-176.808,-0l-0,-674.55l175.736,0l0,240.49c1.378,0.229 2.679,0.459 4.057,0.612c24.033,-80.061 48.144,-160.046 72.483,-241.025l162.725,-0c3.215,7.118 -0.918,13.624 -3.138,20.283c-29.392,88.71 -58.477,177.497 -88.251,266.131c-4.286,12.782 -4.439,24.263 -0.612,37.045c33.371,110.677 66.36,221.508 99.426,332.338c1.683,5.741 2.755,11.634 4.362,18.446l-181.553,0c-21.891,-88.327 -43.705,-176.272 -65.519,-264.217c-0.918,0.077 -1.913,0.077 -2.832,0.153c-0.076,87.486 -0.076,174.971 -0.076,264.294Z" style="fill-rule:nonzero;"/><path d="M3242.06,2315.34l-167.929,0c-3.981,0 -7.884,-0.382 -14.773,-0.842c29.774,-225.105 59.472,-448.985 89.246,-674.09l254.956,-0c33.601,224.263 67.126,448.296 100.88,673.784l-180.176,0c-3.291,-39.112 -6.582,-78.377 -9.95,-118.944l-61.845,0c-3.444,39.113 -6.812,78.378 -10.409,120.092Zm66.284,-243.781c-8.037,-84.577 -15.997,-168.082 -23.957,-251.588c-14.313,83.582 -25.335,166.782 -32.76,251.588l56.717,0Z" style="fill-rule:nonzero;"/><path d="M3943.17,1933.48l-177.344,-0c0,-46.078 0.23,-91.16 -0.153,-136.166c-0.076,-10.715 -2.449,-21.431 -2.908,-32.147c-0.766,-17.451 -11.711,-23.65 -26.866,-23.421c-15.155,0.23 -25.718,7.348 -27.172,23.957c-1.224,14.084 -3.597,28.167 -3.597,42.251c-0.306,114.121 -0.306,228.243 -0,342.288c-0,13.394 2.296,26.789 3.674,40.183c1.607,15.385 11.557,22.963 25.794,23.269c15.155,0.306 24.952,-7.348 27.631,-23.575c6.735,-40.949 2.679,-82.204 3.827,-123.306c0.153,-6.659 -0,-13.318 -0,-21.431l175.507,-0c0.459,1.53 1.913,3.98 1.99,6.352c0.383,43.169 -2.143,86.108 -6.736,129.124c-7.271,67.738 -47.531,108.993 -106.926,132.491c-65.213,25.871 -132.186,22.733 -197.551,-1.378c-58.018,-21.354 -89.169,-64.753 -97.283,-125.526c-4.975,-37.504 -8.036,-75.086 -7.348,-112.897c1.608,-92.384 -0.995,-184.844 2.297,-277.305c2.908,-81.975 55.568,-144.661 136.318,-163.49c51.512,-12.017 103.253,-11.328 153.769,4.439c70.724,22.12 111.979,69.575 118.867,144.661c4.593,49.905 5.971,99.656 4.21,151.627Z" style="fill-rule:nonzero;"/><path d="M2303.75,2073.4l165.251,0c-0,32.913 -0.459,65.06 0.153,97.207c0.612,30.922 8.802,42.862 28.014,43.398c20.206,0.612 31.305,-15.921 34.213,-44.24c5.511,-54.268 -10.869,-95.676 -60.62,-123.307c-28.167,-15.614 -52.813,-37.428 -80.52,-54.114c-66.208,-39.954 -93.992,-99.349 -92.231,-174.665c0.612,-25.564 0.918,-51.205 5.893,-76.464c10.486,-52.966 44.011,-85.648 93.533,-101.798c65.442,-21.278 131.343,-19.824 196.326,2.832c50.593,17.604 83.505,50.44 88.48,106.544c2.756,31.458 4.057,62.839 2.067,95.293l-160.505,-0c-5.052,-7.272 -2.756,-14.849 -3.062,-22.044c-0.689,-16.839 -0.842,-33.678 -1.531,-50.517c-0.536,-15.308 -4.439,-29.008 -23.038,-29.697c-19.289,-0.689 -27.019,12.705 -30.463,29.085c-9.644,45.618 3.674,78.454 43.245,103.712c39.189,25.029 78.76,49.445 115.805,77.689c44.011,33.601 67.126,77.152 71.948,132.185c3.98,45.235 4.899,89.935 -3.827,134.787c-6.506,33.372 -24.263,58.783 -53.119,75.086c-84.118,47.455 -170.685,48.68 -257.405,7.96c-43.398,-20.359 -66.896,-56.869 -74.167,-104.171c-6.047,-40.796 -5.205,-81.822 -4.44,-124.761Z" style="fill-rule:nonzero;"/><path d="M3825.37,2458.86l-0,134.941l-114.811,-0l0,126.215l106.774,-0l-0,129.123l-106.927,0l0,147.494l126.904,-0l-0,135.323l-303.865,-0l-0,-673.172c97.053,0.076 193.723,0.076 291.925,0.076Z" style="fill-rule:nonzero;"/><path d="M1280.64,2152.01c-89.782,-138.232 -178.645,-274.933 -268.81,-413.624c-28.855,9.185 -57.711,17.681 -86.107,27.708c-26.713,9.414 -54.497,15.538 -80.138,28.014c-9.338,4.516 -17.222,1.377 -24.034,-5.052c-72.56,-68.427 -145.197,-136.854 -217.374,-205.74c-12.936,-12.323 -10.027,-23.498 8.036,-38.577c48.68,-40.566 97.896,-80.443 145.963,-121.699c30.08,-25.794 63.299,-48.067 89.552,-78.377c9.644,-11.098 22.044,-6.353 33.754,-1.76c51.895,20.589 103.865,41.025 157.826,62.303c114.275,-142.211 228.091,-283.888 343.054,-427.095c-22.273,-37.275 -42.097,-75.698 -66.973,-110.524c-22.503,-31.458 -25.488,-57.864 -6.812,-93.685c46.384,-88.94 87.868,-180.482 131.573,-270.876c10.18,-20.972 20.436,-23.192 39.954,-10.027c63.835,42.786 127.669,85.649 191.427,128.511c4.44,2.985 9.032,6.047 12.859,9.797c7.807,7.578 12.553,16.227 4.899,26.789c-7.654,10.486 -17.451,12.477 -28.167,5.511c-31.611,-20.666 -62.993,-41.561 -94.451,-62.533c-31.841,-21.278 -63.605,-42.71 -96.9,-65.059c-45.465,94.68 -90.317,188.059 -135.4,282.127c28.626,47.608 56.64,95.14 85.725,141.983c9.262,14.925 8.803,26.176 -2.296,39.954c-115.882,143.819 -231.534,287.791 -346.727,432.146c-13.701,17.145 -27.785,19.901 -47.608,11.634c-44.777,-18.752 -90.241,-35.821 -135.247,-53.961c-10.639,-4.286 -19.135,-5.97 -29.392,2.756c-66.972,56.487 -134.558,112.284 -201.913,168.388c-2.067,1.684 -3.674,3.827 -7.807,8.267c63.452,60.237 126.674,120.245 191.045,181.4c30.692,-9.873 61.385,-19.747 92.077,-29.697c26.254,-8.573 52.507,-17.222 78.684,-26.101c15.461,-5.204 23.957,3.215 31.458,14.849c59.472,91.543 119.02,183.085 178.492,274.627c31.228,48.067 62.304,96.135 93.379,144.278c13.854,21.355 13.548,33.372 -3.138,52.584c-33.984,39.188 -68.197,78.224 -102.87,116.877c-6.736,7.424 -8.879,14.389 -6.506,23.651c23.421,90.623 46.766,181.247 70.57,273.631c27.095,-13.394 49.369,-31.917 73.632,-47.302c19.365,-12.246 37.964,-25.717 57.022,-38.499c12.553,-8.42 26.56,-15.002 37.122,0.765c10.18,15.155 -1.454,24.876 -13.241,32.836c-47.532,32.07 -94.987,64.141 -142.671,95.981c-23.804,15.921 -41.026,9.874 -48.221,-17.987c-21.278,-82.204 -41.944,-164.561 -62.916,-246.919c-4.669,-18.293 -7.654,-37.198 -14.389,-54.726c-6.2,-16.074 -1.148,-26.636 9.108,-38.041c33.754,-37.657 67.049,-75.698 100.421,-113.738c3.98,-4.746 7.577,-9.568 12.476,-15.768Z" style="fill-rule:nonzero;"/><path d="M3383.51,2996.86l105.32,0l-0,135.476l-280.826,0l-0,-673.325l175.43,0c0.076,177.88 0.076,356.219 0.076,537.849Z" style="fill-rule:nonzero;"/><path d="M2884.31,2458.4l175.889,0l0,538.538l105.013,-0l0,135.859l-280.902,-0l-0,-674.397Z" style="fill-rule:nonzero;"/><path d="M2313.4,3132.64l0,-673.785l175.967,0l-0,538.002l105.472,0l0,135.783l-281.439,-0Z" style="fill-rule:nonzero;"/><path d="M2755.03,2314.27l-0,-673.861l175.966,-0l0,538.155l105.473,-0l-0,135.706l-281.439,-0Z" style="fill-rule:nonzero;"/><rect x="2639.92" y="2458.24" width="173.44" height="674.473" style="fill-rule:nonzero;"/><path d="M2748.83,944.888c-116.571,-4.746 -229.008,-9.338 -343.666,-14.007c-24.799,40.413 -50.363,80.75 -74.32,121.929c-8.496,14.696 -17.834,20.13 -34.367,15.997c-67.355,-16.839 -134.864,-32.989 -202.296,-49.598c-13.165,-3.215 -23.039,-10.793 -19.594,-25.565c3.75,-15.997 16.685,-17.91 30.539,-14.466c56.334,13.701 112.591,27.631 168.925,41.332c7.73,1.913 15.69,2.985 24.493,4.669c23.421,-38.041 46.995,-74.857 68.886,-112.668c10.409,-17.987 22.885,-24.875 44.087,-23.88c111.213,5.358 222.579,9.185 333.869,13.547c52.124,2.067 58.859,13.625 40.566,62.84c-30.31,81.516 -59.625,163.337 -88.633,245.312c-5.588,15.767 -15.079,23.957 -30.617,28.702c-50.287,15.308 -100.344,31.688 -150.401,47.762c-4.363,1.377 -8.42,3.75 -10.41,4.592c0,69.958 0,138.079 -0.076,206.2c-0,8.036 0.306,16.303 -1.148,24.186c-1.914,10.563 -9.185,16.61 -20.13,16.074c-10.716,-0.536 -17.834,-6.506 -19.212,-17.298c-1.148,-9.338 -1.225,-18.829 -1.378,-28.32c-1.071,-66.131 -2.066,-132.338 -2.908,-198.469c-0.383,-28.55 3.98,-34.137 32.07,-43.092c50.057,-15.997 100.191,-32.071 150.325,-47.991c7.042,-2.22 13.854,-3.521 16.916,-12.247c28.855,-80.52 58.017,-160.964 88.48,-245.541Z" style="fill-rule:nonzero;"/><path d="M1658.82,2202.83c0.229,54.42 0.229,54.42 -51.742,62.38c-36.203,5.588 -42.786,0.383 -45.082,-36.356c-2.908,-47.073 -4.745,-93.992 11.022,-139.61c2.679,-7.654 5.587,-15.078 11.098,-21.278c14.084,-15.92 28.856,-16.38 42.71,-0.459c11.71,13.547 17.528,30.157 21.278,47.302c6.582,29.621 9.414,59.778 10.716,88.021Zm-25.948,33.754c4.134,-54.037 0.536,-106.161 -27.018,-154.764c-28.55,51.129 -22.427,105.319 -18.523,159.816c16.609,1.913 30.08,-2.373 45.541,-5.052Z" style="fill-rule:nonzero;"/><path d="M1669.92,2161.34c1.225,-28.09 0.536,-59.242 13.777,-88.327c6.047,-13.318 13.318,-25.794 29.774,-26.79c15.691,-0.918 24.953,9.951 31.152,22.121c26.483,51.741 27.325,107.462 23.116,163.719c-0.689,9.798 -8.573,13.242 -16.992,14.39c-17.987,2.602 -36.051,4.822 -54.038,6.965c-13.854,1.607 -18.982,-6.735 -21.202,-18.829c-4.209,-23.345 -4.669,-46.842 -5.587,-73.249Zm72.943,60.85c9.797,-54.956 -5.128,-131.573 -29.085,-150.632c-20.513,26.636 -27.402,116.112 -11.481,156.525c13.318,-2.066 27.401,-1.148 40.566,-5.893Z" style="fill-rule:nonzero;"/><path d="M1778.3,2181.78c1.454,-40.872 1.301,-78.607 14.619,-114.657c4.822,-12.935 10.563,-25.641 26.866,-26.406c15.308,-0.689 22.426,10.256 27.937,22.349c21.661,47.762 24.11,98.737 24.34,149.943c0.076,10.103 -6.429,15.691 -16.609,16.992c-19.365,2.449 -38.653,5.051 -58.018,7.501c-11.098,1.454 -16.379,-3.904 -16.992,-14.619c-0.765,-14.696 -1.531,-29.468 -2.143,-41.103Zm42.403,-112.897c-19.824,45.848 -19.441,93.456 -17.221,143.207c16.456,-2.372 31.228,0.307 45.694,-7.807c-3.597,-46.46 -4.056,-92.843 -28.473,-135.4Z" style="fill-rule:nonzero;"/><path d="M1834.1,1732.49c0.689,54.114 0.689,54.267 -53.119,60.62c-32.836,3.903 -65.672,7.118 -98.507,10.945c-12.936,1.454 -22.35,-0.077 -24.34,-16.074c-8.113,-64.982 -2.603,-127.898 26.789,-187.294c4.439,-8.955 10.333,-17.527 16.915,-25.028c27.019,-30.693 62.074,-30.616 88.864,0.153c22.962,26.406 31.84,58.859 38.576,92.154c4.363,21.278 4.745,42.863 4.822,64.524Zm-25.947,32.529c8.19,-52.047 -3.138,-121.546 -25.182,-159.28c-22.12,-37.964 -51.818,-38.959 -73.172,-0.536c-29.392,52.966 -35.745,110.601 -28.703,170.073c0.153,1.071 1.684,1.99 3.444,3.98c40.567,-4.21 82.051,-6.736 123.613,-14.237Z" style="fill-rule:nonzero;"/><path d="M1733.68,1206.12c-3.75,-2.602 -7.195,-4.745 -10.256,-7.271c-7.195,-5.97 -16.456,-11.252 -12.17,-22.886c3.827,-10.409 13.93,-9.108 22.273,-10.18c11.405,-1.454 22.886,-2.066 34.214,-3.521c9.797,-1.301 17.298,1.072 21.354,10.793c0.46,14.389 -15.155,18.293 -21.201,34.672c4.898,3.521 12.17,7.501 17.987,13.089c19.747,19.058 29.391,42.48 32.146,69.958c6.124,60.849 0.077,121.316 -2.066,182.013c-0.383,10.792 -6.429,15.767 -16.303,17.068c-28.779,3.75 -57.482,7.654 -86.261,11.022c-9.95,1.148 -17.298,-2.373 -16.992,-14.39c1.225,-47.991 -7.96,-95.522 -5.741,-143.513c2.144,-48.603 9.645,-95.446 43.016,-136.854Zm-12.093,268.657c25.87,-2.373 48.45,-3.674 70.953,-8.956c5.434,-58.783 6.659,-116.494 1.683,-174.282c-2.602,-30.616 -19.288,-51.741 -44.316,-70.723c-53.961,80.138 -32.913,166.475 -28.32,253.961Z" style="fill-rule:nonzero;"/></g></svg>