<?xml version="1.0" encoding="UTF-8" standalone="no"?><!DOCTYPE svg PUBLIC "-//W3C//DTD SVG 1.1//EN" "http://www.w3.org/Graphics/SVG/1.1/DTD/svg11.dtd"><svg width="100%" height="100%" viewBox="0 0 2905 513" version="1.1" xmlns="http://www.w3.org/2000/svg" xmlns:xlink="http://www.w3.org/1999/xlink" xml:space="preserve" xmlns:serif="http://www.serif.com/" style="fill-rule:evenodd;clip-rule:evenodd;stroke-linejoin:round;stroke-miterlimit:2;"><g><path d="M255.925,0.9c-141.446,0 -255.925,114.567 -255.925,255.762c0,141.355 114.479,255.838 255.925,255.838c141,0 255.508,-114.483 255.508,-255.838c0,-141.195 -114.508,-255.762 -255.508,-255.762Zm169.196,318.262c-3.246,3.863 -40.642,39.105 -40.642,39.105c0,-0 -8.671,1.621 -14.325,1.912c-2.008,0.329 -4,0.329 -4.5,0.259c-0.525,-0.259 -2.083,-2.305 -3.729,-5.059c-2.058,-3.2 -4.658,-7.291 -8.254,-12.271c-3.784,-5.196 -29.071,-38.216 -30.404,-40.745c-1.104,-2.55 4.133,-13.596 4.133,-13.596c-0,-0 -2.8,2.508 -5.537,2.354c-2.5,-0.263 -9.801,-8.804 -14.971,-11.221c-5.225,-2.025 -23.15,-2.15 -35.305,-3.671c-12.254,-1.396 -24.066,-3.521 -27.862,-2.75c-3.687,0.559 -9.104,12.067 -18.621,25.067c-11.016,15.325 -23.704,24.787 -29.408,26.304c-5.629,1.375 -9.883,-1.825 -9.883,-1.825c-0,0 1.154,4.85 0.925,8.225c-0.2,3.108 -4.592,4.662 -9.8,7.683c-0,0 -38.096,22.267 -40.305,24.046c-1.683,1.779 -1.996,33.946 -2.87,36.458c-0.955,2.313 -5.909,5.084 -10.459,5.309c-4.337,0.4 -14.816,-16.729 -14.816,-16.729c-0,-0 -21.517,-56.346 -21.325,-59.925c0.32,-3.6 15.241,-8.175 22.675,-11.95c7.487,-3.888 48.662,-28.046 48.662,-28.046c5.75,1.204 19.446,7.025 26.704,10.708c4.175,-1.862 10.463,-5.412 11.579,-7.017c1.713,-1.645 4.971,-7.375 6.463,-10.129c3.45,-5.687 4.446,-7.241 8.483,-16.371c4.108,-9.091 2.709,-17.495 4.538,-25.533c1.954,-7.908 11.15,-21.867 13.816,-29.442c2.638,-7.708 1.671,-28.612 0.338,-30.508c-1.304,-2.55 -18.692,3.65 -22.204,4.85c-3.5,1.267 -9.267,1.4 -14.734,3.375c-5.412,1.842 -5.116,2.375 -10.608,4.846c-5.4,2.396 -5.4,2.175 -13.467,2.888c-7.704,0.795 -5.508,4.262 -10.529,4.395c-4.916,0.067 -7.246,-8.646 -2.075,-12.487c5.117,-3.954 12.008,-2.575 17.292,-2.667c4.979,-0.262 7.308,-3.683 13.666,-7.15c6.326,-3.312 15.93,-6.667 17.771,-7.796c2.159,-0.825 10.25,-7.108 15.73,-9.891c6.05,-2.713 21.333,-7.288 25.395,-13.35c5.821,-8.38 -0.404,-14.405 -0.404,-24.488c0,-8.242 8,-13.933 16.067,-14.416c8.4,-0.442 16.887,3.149 18.692,10.437c1.429,9.158 0.133,16.754 -2.396,24.421c-1.271,3.621 -4.138,7.929 -8,8.287c-2.117,0.288 -6.117,0.175 -7.621,2.046c-0.609,0.579 -0.784,0.908 -0.917,1.509c0,0.308 -0.458,0.908 -0.621,1.245l3.18,0.704c2.637,0.805 9.841,2.65 14.045,5.563c4.238,2.754 9.6,6.667 13.396,8.212c3.825,1.713 16.413,6.713 22.125,9.205c5.95,2.446 16.846,7.287 20.708,8.8l0.284,0.129c5.708,1.4 13.708,1.517 18.529,7.158c5.013,5.509 0.429,14.683 -5.104,13.6c-5.575,-1.429 -2.396,-4.696 -11.042,-7.425c-6.008,-1.779 -7.862,-2.262 -10.529,-3.821c-1.117,-0.845 -2.45,-1.425 -3.867,-1.846c-4.779,-1.087 -14.071,-1.641 -21.516,-4.154c-7.767,-2.4 -24.184,-5.6 -27.388,-6.304c-3.142,-0.675 -5.292,0 -5.292,2.663c0.538,9.375 -4.887,16 -5.75,21.683c-0.716,5.871 -0.608,10.554 -1.025,14.488c-0.591,3.841 -1.82,11.687 0.784,12.575c5.504,1.866 54.762,16.308 57.737,17.641c4.313,1.729 10.129,3.313 11.609,7.621c1.52,4.313 0.766,10.975 3.462,12.908c2.758,2.088 5.1,-0.841 8.846,-3.287c3.554,-2.579 8.242,-5.959 10.838,-5.042c2.358,0.821 34.591,34.854 34.591,34.854c0,0 25.709,-1.795 29.467,-1.795c3.704,-0 8.404,9.041 9.304,10.933c0.929,2.087 -0.658,4.375 -3.729,8.241Z" style="fill:#231f20;fill-rule:nonzero;"/><rect x="669.292" y="65.233" width="77.55" height="382.813" style="fill:#231f20;fill-rule:nonzero;"/><path d="M902.463,448.046l-78.088,-0l0,-267.588l78.088,0l-0,267.588Zm-84.092,-343.492c-0,-12.737 4.362,-23.475 13.104,-32.216c8.738,-8.738 19.292,-13.109 31.667,-13.109c12.741,0 23.487,4.371 32.225,13.109c8.737,8.741 13.104,19.479 13.104,32.216c-0,12.384 -4.459,22.938 -13.371,31.675c-8.933,8.738 -19.583,13.104 -31.958,13.104c-12.375,0 -22.929,-4.366 -31.667,-13.104c-8.742,-8.737 -13.104,-19.291 -13.104,-31.675Z" style="fill:#231f20;fill-rule:nonzero;"/><rect x="980" y="65.233" width="77.546" height="382.813" style="fill:#231f20;fill-rule:nonzero;"/><rect x="1132.35" y="65.233" width="77.55" height="382.813" style="fill:#231f20;fill-rule:nonzero;"/><path d="M1396.65,242.171c-13.479,-0 -24.667,3.646 -33.583,10.921c-8.929,7.283 -14.663,16.925 -17.209,28.945l96.117,0c-0.742,-11.283 -5.279,-20.75 -13.654,-28.399c-8.375,-7.642 -18.934,-11.467 -31.671,-11.467Zm127.238,68.808l-0.555,22.933l-181.3,0c2.196,14.563 8.642,26.4 19.392,35.496c10.733,9.1 24.304,13.654 40.679,13.654c27.308,0 49.15,-10.375 65.538,-31.129l51.329,48.059c-28.763,36.046 -66.992,54.058 -114.671,54.058c-40.425,0 -74.104,-12.554 -101.033,-37.675c-26.584,-25.483 -39.871,-58.979 -39.871,-100.479c-0,-41.138 12.196,-74.996 36.6,-101.575c24.746,-26.942 56.421,-40.413 95.012,-40.413c40.771,0 72.442,13.654 95.025,40.955c22.567,27.674 33.855,59.712 33.855,96.116Z" style="fill:#231f20;fill-rule:nonzero;"/><path d="M1783.83,248.179c15.283,7.646 27.754,19.379 37.408,35.225c9.642,15.838 14.463,34.129 14.463,54.879c-0,36.771 -13.654,65.175 -40.95,85.188c-27.675,20.392 -62.075,30.579 -103.213,30.579c-26.579,0 -52.07,-5.554 -76.458,-16.654c-24.387,-11.096 -44.233,-25.934 -59.517,-44.5l54.6,-55.159c22.567,28.038 50.796,42.046 84.646,42.046c18.208,0 32.763,-3.816 43.696,-11.466c10.921,-7.642 16.375,-18.379 16.375,-32.213c0,-29.854 -24.212,-44.779 -72.633,-44.779l-31.671,-0l-0,-75.362l25.666,-0c45.876,-0 68.805,-14.384 68.805,-43.146c-0,-11.284 -4.629,-20.655 -13.917,-28.121c-9.283,-7.463 -21.4,-11.196 -36.321,-11.196c-31.671,0 -57.337,12.379 -76.996,37.129l-52.975,-52.967c34.58,-38.954 77.188,-58.433 127.788,-58.433c37.487,0 68.987,8.929 94.475,26.763c26.221,17.841 39.325,44.229 39.325,79.179c-0,36.408 -14.213,64.083 -42.596,83.008Z" style="fill:#231f20;fill-rule:nonzero;"/><path d="M2096.18,347.021c12.375,-22.2 18.567,-52.425 18.567,-90.65c-0,-38.584 -6.192,-68.621 -18.567,-90.104c-12.012,-21.85 -29.492,-32.767 -52.421,-32.767c-22.583,0 -40.233,10.917 -52.975,32.767c-12.012,21.841 -18.016,51.875 -18.016,90.104c-0,38.225 6.004,68.45 18.016,90.65c12.742,21.842 30.392,32.762 52.975,32.762c22.929,0 40.409,-10.92 52.421,-32.762Zm99.387,-90.65c0,58.617 -13.479,106.308 -40.412,143.075c-26.579,36.408 -63.717,54.604 -111.396,54.604c-47.696,0 -84.837,-18.196 -111.404,-54.604c-26.958,-36.767 -40.408,-84.458 -40.408,-143.075c-0,-58.613 13.45,-106.121 40.408,-142.534c26.567,-36.395 63.708,-54.608 111.404,-54.608c47.679,0 84.817,18.213 111.396,54.608c26.933,36.776 40.412,84.288 40.412,142.534Z" style="fill:#231f20;fill-rule:nonzero;"/><path d="M2450.05,347.021c12.371,-22.2 18.571,-52.425 18.571,-90.65c-0,-38.584 -6.2,-68.621 -18.571,-90.104c-12.012,-21.85 -29.492,-32.767 -52.425,-32.767c-22.579,0 -40.233,10.917 -52.971,32.767c-12.012,21.841 -18.021,51.875 -18.021,90.104c0,38.225 6.009,68.45 18.021,90.65c12.738,21.842 30.392,32.762 52.971,32.762c22.933,0 40.413,-10.92 52.425,-32.762Zm99.387,-90.65c0,58.617 -13.475,106.308 -40.408,143.075c-26.579,36.408 -63.721,54.604 -111.404,54.604c-47.692,0 -84.833,-18.196 -111.4,-54.604c-26.958,-36.767 -40.408,-84.458 -40.408,-143.075c-0,-58.613 13.45,-106.121 40.408,-142.534c26.567,-36.395 63.708,-54.608 111.4,-54.608c47.683,0 84.825,18.213 111.404,54.608c26.933,36.776 40.408,84.288 40.408,142.534Z" style="fill:#231f20;fill-rule:nonzero;"/><path d="M2803.91,347.021c12.379,-22.2 18.571,-52.425 18.571,-90.65c0,-38.584 -6.192,-68.621 -18.571,-90.104c-12.012,-21.85 -29.487,-32.767 -52.421,-32.767c-22.579,0 -40.233,10.917 -52.97,32.767c-12.009,21.841 -18.021,51.875 -18.021,90.104c-0,38.225 6.012,68.45 18.021,90.65c12.737,21.842 30.391,32.762 52.97,32.762c22.934,0 40.409,-10.92 52.421,-32.762Zm99.392,-90.65c-0,58.617 -13.479,106.308 -40.408,143.075c-26.584,36.408 -63.717,54.604 -111.405,54.604c-47.691,0 -84.829,-18.196 -111.4,-54.604c-26.958,-36.767 -40.408,-84.458 -40.408,-143.075c0,-58.613 13.45,-106.121 40.408,-142.534c26.571,-36.395 63.709,-54.608 111.4,-54.608c47.688,0 84.821,18.213 111.405,54.608c26.929,36.776 40.408,84.288 40.408,142.534Z" style="fill:#231f20;fill-rule:nonzero;"/></g></svg>