<?xml version="1.0" encoding="UTF-8" standalone="no"?><!DOCTYPE svg PUBLIC "-//W3C//DTD SVG 1.1//EN" "http://www.w3.org/Graphics/SVG/1.1/DTD/svg11.dtd"><svg width="100%" height="100%" viewBox="0 0 2112 2140" version="1.1" xmlns="http://www.w3.org/2000/svg" xmlns:xlink="http://www.w3.org/1999/xlink" xml:space="preserve" xmlns:serif="http://www.serif.com/" style="fill-rule:evenodd;clip-rule:evenodd;stroke-linejoin:round;stroke-miterlimit:2;"><rect id="Page-1" serif:id="Page 1" x="0" y="0" width="2111.7" height="2139.85" style="fill:none;"/><g id="Calque-1" serif:id="Calque 1"><path d="M1057.94,549.835c-8.88,0 -10.384,7.775 -10.384,20.675l19.575,0c0,-13.433 -1.696,-20.675 -9.191,-20.675" style="fill:#e30613;fill-rule:nonzero;"/><path d="M1618.63,1010.65l-73.921,-0l0,181.9l73.921,-0l0,101.337l-73.921,0l0,181.9l73.921,0l0,101.338l-188.25,-0l0,-667.813l188.25,0l0,101.338Zm-260.283,-414.913l28.821,-35.671c-0,0 34.345,-4.65 49.645,34.467c0.234,0.592 0.521,1.362 0.846,2.267c0.221,0.6 0.704,0.991 1.346,0.812c0.479,-0.137 0.817,-0.546 0.663,-1.346c-0.18,-0.921 -0.338,-1.416 -0.5,-2.066c-9.55,-38.784 -29.875,-68.025 -29.875,-68.025l38.066,-51.384l38.063,51.384c-0,-0 -20.325,29.241 -29.88,68.025c-0.162,0.65 -0.316,1.145 -0.495,2.066c-0.154,0.8 0.183,1.209 0.662,1.346c0.642,0.179 1.125,-0.212 1.342,-0.812c0.325,-0.905 0.616,-1.675 0.85,-2.267c15.3,-39.117 49.646,-34.467 49.646,-34.467l28.816,35.671c0,0 -76.4,-7.187 -81.866,48.117l-14.279,-0c-5.467,-55.304 -81.871,-48.117 -81.871,-48.117m-33.725,875.629l-116.925,0l-0,-735.358l116.925,-0l-0,735.358Zm-135.884,-852.771c-2.021,6.534 -7.529,14.13 -19.587,14.13c-18.242,-0 -27.95,-13.78 -27.95,-49.488c-0,-29.679 4.021,-51.071 26.275,-51.071c7.533,0 15.737,2.646 20.262,12.904l0.33,0l-0,-52.416l27.116,-0l0,137.596l-26.116,-0l-0,-11.655l-0.33,0Zm-203.654,1064.28l-0.075,-829.946l116.85,-0l0.075,829.946l-116.85,-0Zm-9.437,-1190.23l27.121,-0l-0,137.596l-27.121,-0l-0,-137.596Zm-23.938,137.596l-27.104,-0l0,-137.596l27.104,-0l0,137.596Zm-51.05,-110.592l-27.121,-0l0,-27l27.121,-0l0,27Zm0,110.592l-27.121,-0l0,-95.609l27.121,0l0,95.609Zm-21.404,222.683l-116.925,-0l0,-116.925l116.925,-0l0,116.925Zm0,670.3l-116.925,-0l0,-564.542l116.925,0l0,564.542Zm-222.646,159.646l-116.925,-0l0,-999.75l116.925,-0l0,999.75Zm151.546,-1148.24l10.55,70.517l0.329,-0l10.709,-70.517l27.12,0l-22.42,95.609l-32.146,-0l-22.25,-95.609l28.108,0Zm249.088,-2.475c33.645,0 35.995,22.438 35.995,54.963l-45.687,-0l-0,5.841c-0,14.842 1.992,22.084 9.867,22.084c7.029,-0 9.208,-5.488 9.879,-17.496l25.096,-0c-0.505,23.683 -12.709,35.167 -35.15,35.167c-34.134,-0 -36.813,-25.271 -36.813,-53.721c0,-26.863 7.358,-46.838 36.813,-46.838m212.412,0c33.633,0 35.967,22.438 35.967,54.963l-45.675,-0l-0,5.841c-0,14.842 2.021,22.084 9.879,22.084c7.033,-0 9.192,-5.488 9.867,-17.496l25.1,-0c-0.505,23.683 -12.717,35.167 -35.138,35.167c-34.154,-0 -36.829,-25.271 -36.829,-53.721c-0,-26.863 7.358,-46.838 36.829,-46.838m-209.742,-379.629c-516.895,0 -935.92,419.025 -935.92,935.921c-0,516.896 419.025,935.921 935.92,935.921c516.896,-0 935.921,-419.025 935.921,-935.921c0,-516.896 -419.025,-935.921 -935.921,-935.921" style="fill:#e30613;fill-rule:nonzero;"/><path d="M1178.71,553.006c-9.88,0 -10.38,11.5 -10.38,28.825c0,15.363 0.33,30.042 10.538,30.042c8.046,-0 9.708,-10.254 9.708,-28.804c0,-16.971 -0.662,-30.063 -9.866,-30.063" style="fill:#e30613;fill-rule:nonzero;"/><path d="M1270.33,549.835c-8.875,0 -10.379,7.775 -10.379,20.675l19.583,0c0,-13.433 -1.671,-20.675 -9.204,-20.675" style="fill:#e30613;fill-rule:nonzero;"/></g></svg>